<?xml version="1.0" encoding="UTF-8" standalone="no"?>
<svg
   xmlns="http://www.w3.org/2000/svg"
   id="svg2509"
   version="1.1"
   viewBox="0 0 97.480354 97.4804"
   height="97.4804mm"
   width="97.480354mm">
  <g
     transform="translate(-41.981858,-91.966421)"
     id="layer1">
    <path
       d="M 90.722026,91.966421 A 48.740131,48.740131 0 0 0 41.981858,140.70663 48.740131,48.740131 0 0 0 90.722026,189.44682 48.740131,48.740131 0 0 0 139.46221,140.70663 48.740131,48.740131 0 0 0 90.722026,91.966421 Z m -16.819139,7.772604 1.828851,0.765405 c 3.44189,1.4389 5.948889,2.9137 7.524588,4.4395 1.574591,1.5248 2.457691,3.3182 2.587443,5.3635 0.157398,2.0422 -0.544092,4.8966 -2.095471,8.60769 -1.770621,4.23561 -2.70891,6.9859 -2.83499,8.1696 -0.12869,1.20811 0.037,2.4524 0.497661,3.6892 0.446587,1.19941 1.796489,2.35081 4.089159,3.3987 l 0.11679,0.053 -3.098541,7.413 -0.12142,-0.05 c -2.32542,-0.9495 -4.319191,-1.0289 -5.97844,-0.2708 -1.6401,0.7647 -3.41879,3.3092 -5.250339,7.6905 -1.420569,3.3981 -2.605641,5.8579 -3.54346,7.3954 -0.94308,1.5461 -2.18718,2.6563 -3.70467,3.3275 -1.5146,0.6698 -3.20053,0.9251 -5.0519,0.7208 -1.85195,-0.2042 -4.2663,-0.9211 -7.24606,-2.1667 l -1.82936,-0.7648 3.10938,-7.4363 0.12195,0.051 c 1.48254,0.6197 2.71103,1.0488 3.67628,1.2852 0.96523,0.2364 1.66844,0.2729 2.07791,0.1405 0.84862,-0.2743 1.70045,-1.2745 2.46962,-3.0076 v -5.3e-4 c 2.26782,-5.0476 3.8269,-8.2435 4.71805,-9.6092 0.87894,-1.34 1.99771,-2.49 3.338299,-3.4096 1.31249,-0.9136 2.99656,-1.4687 5.052402,-1.6965 -1.300581,-1.8129 -2.110772,-3.4222 -2.386942,-4.7827 -0.283289,-1.3951 -0.292809,-2.79239 -0.01,-4.1801 0.283469,-1.388 1.07886,-3.8266 2.380718,-7.3184 0.650161,-1.7438 1.143291,-3.1253 1.480021,-4.1393 0.33618,-1.0123 0.515089,-1.6709 0.53952,-1.9167 0.0327,-0.53 -0.174019,-1.0854 -0.679561,-1.7136 -0.23617,-0.2936 -0.755679,-0.6719 -1.548739,-1.1069 -0.793059,-0.4349 -1.860311,-0.9317 -3.20032,-1.4919 l -0.12197,-0.051 3.0422,-7.276105 z m 25.28011,10.567905 7.225403,3.021 -24.156673,57.78459 -7.2259,-3.021 24.106031,-57.66269 z m 22.061203,10.56109 c 0.44199,0 0.89461,0.017 1.35752,0.068 1.85196,0.20441 4.2663,0.9216 7.2461,2.1673 l 1.82882,0.7648 -3.09285,7.398 -0.12194,-0.051 c -1.54959,-0.6478 -2.81866,-1.0884 -3.80082,-1.32349 -0.98212,-0.23521 -1.6787,-0.25621 -2.05827,-0.1074 -0.80333,0.3149 -1.61113,1.3163 -2.37297,3.0318 v 5.2e-4 h -5.3e-4 c -2.13929,4.7402 -3.58892,7.7804 -4.41058,9.1462 -0.82042,1.3637 -1.86137,2.5463 -3.175,3.5668 l -5.3e-4,5.3e-4 c -1.28125,0.9824 -3.12679,1.6473 -5.55109,2.0226 1.38091,1.8245 2.22268,3.6579 2.45671,5.4859 0.24175,1.8885 -0.14518,4.2716 -1.17462,7.1671 l -3.15484,8.8914 c -0.15388,0.8908 0.031,1.6695 0.56224,2.3683 0.5121,0.6735 2.07785,1.6155 4.69842,2.711 l 0.12194,0.051 -3.10935,7.4368 -1.7906,-0.7488 c -3.44191,-1.4389 -5.948442,-2.9141 -7.524081,-4.44 -1.57457,-1.5248 -2.45772,-3.3176 -2.58744,-5.363 -0.157562,-2.0433 0.571418,-4.9086 2.114598,-8.6 1.69799,-4.0617 2.632393,-6.742 2.812733,-7.9577 0,0 0,-5.3e-4 0,-5.3e-4 0.16338,-1.239 0.0319,-2.51079 -0.43148,-3.79249 v -5.3e-4 l -5.3e-4,-5.3e-4 c -0.442682,-1.264 -1.821603,-2.4501 -4.152191,-3.5139 l -0.116781,-0.053 3.10729,-7.4321 0.121441,0.05 c 2.325881,0.9499 4.299931,1.0214 5.980011,0.2698 1.62912,-0.7452 3.42564,-3.3277 5.27304,-7.7468 1.41253,-3.3789 2.58982,-5.8201 3.54759,-7.3505 0.96202,-1.5371 2.20432,-2.6466 3.7021,-3.3259 l 5.3e-4,-5.3e-4 h 5.3e-4 c 1.13599,-0.5024 2.36879,-0.7716 3.69488,-0.7886 z"
       id="circle2710" />
  </g>
</svg>
